<svg height="512pt" viewBox="0 0 512 512" width="512pt" xmlns="http://www.w3.org/2000/svg"><path d="m15 512h271c8.285156 0 15-6.714844 15-15s-6.714844-15-15-15h-271c-8.285156 0-15 6.714844-15 15s6.714844 15 15 15zm0 0"/><path d="m15 452h271c8.285156 0 15-6.714844 15-15s-6.714844-15-15-15h-271c-8.285156 0-15 6.714844-15 15s6.714844 15 15 15zm0 0"/><path d="m0 377c0 8.285156 6.714844 15 15 15h271c8.285156 0 15-6.714844 15-15s-6.714844-15-15-15h-271c-8.285156 0-15 6.714844-15 15zm0 0"/><path d="m497 120h-147.453125l-48.546875-24.273438v-8.289062c17.460938-6.199219 30-22.882812 30-42.4375 0-24.8125-20.1875-45-45-45s-45 20.1875-45 45c0 8.289062 6.710938 15 15 15s15-6.710938 15-15c0-8.277344 6.722656-15 15-15s15 6.722656 15 15-6.722656 15-15 15c-8.289062 0-15 6.710938-15 15v20.726562l-48.546875 24.273438h-146.453125c-8.289062 0-15 6.710938-15 15v121c0 8.289062 6.710938 15 15 15h45v61h165c24.8125 0 45 20.1875 45 45 0 11.566406-4.507812 22.019531-11.703125 30 7.195313 7.980469 11.703125 18.433594 11.703125 30s-4.507812 22.019531-11.703125 30c7.195313 7.980469 11.703125 18.433594 11.703125 30 0 5.285156-1.082031 10.285156-2.761719 15h108.761719c8.289062 0 15-6.710938 15-15v-226h45c8.289062 0 15-6.710938 15-15v-121c0-8.289062-6.710938-15-15-15zm-211 60c-21.789062 0-39.992188-15.574219-44.109375-36.175781l44.109375-22.050781 44.109375 22.050781c-4.117187 20.601562-22.320313 36.175781-44.109375 36.175781zm0 0"/></svg>